<?xml version="1.0" encoding="UTF-8" standalone="no"?>
<!DOCTYPE svg PUBLIC "-//W3C//DTD SVG 1.1//EN"
 "http://www.w3.org/Graphics/SVG/1.1/DTD/svg11.dtd">
<!-- Generated by graphviz version 2.47.0 (20210316.0004)
 -->
<!-- Title: dependencies Pages: 1 -->
<svg width="568pt" height="211pt"
 viewBox="0.00 0.00 568.00 211.00" xmlns="http://www.w3.org/2000/svg" xmlns:xlink="http://www.w3.org/1999/xlink">
<g id="graph0" class="graph" transform="scale(1 1) rotate(0) translate(4 207)">
<title>dependencies</title>
<polygon fill="white" stroke="transparent" points="-4,4 -4,-207 564,-207 564,4 -4,4"/>
<text text-anchor="start" x="259.01" y="-42.4" font-family="Times-12" font-weight="bold" font-size="14.00">Legend</text>
<polygon fill="#ffffb3" stroke="transparent" points="46,-10 46,-30 66,-30 66,-10 46,-10"/>
<text text-anchor="start" x="69.63" y="-15.4" font-family="Times-12" font-size="14.00"> &#160;Declarations</text>
<polygon fill="#8dd3c7" stroke="transparent" points="159,-10 159,-30 179,-30 179,-10 159,-10"/>
<text text-anchor="start" x="182.73" y="-15.4" font-family="Times-12" font-size="14.00"> &#160;Module</text>
<polygon fill="#80b1d3" stroke="transparent" points="245,-10 245,-30 265,-30 265,-10 245,-10"/>
<text text-anchor="start" x="268.78" y="-15.4" font-family="Times-12" font-size="14.00"> &#160;Bootstrap</text>
<polygon fill="#fdb462" stroke="transparent" points="342,-10 342,-30 362,-30 362,-10 342,-10"/>
<text text-anchor="start" x="365.67" y="-15.4" font-family="Times-12" font-size="14.00"> &#160;Providers</text>
<polygon fill="#fb8072" stroke="transparent" points="438,-10 438,-30 458,-30 458,-10 438,-10"/>
<text text-anchor="start" x="461.73" y="-15.4" font-family="Times-12" font-size="14.00"> &#160;Exports</text>
<g id="clust1" class="cluster">
<title>cluster_AppModule</title>
<polygon fill="none" stroke="black" stroke-dasharray="1,5" points="8,-70 8,-195 552,-195 552,-70 8,-70"/>
</g>
<g id="clust3" class="cluster">
<title>cluster_AppModule_imports</title>
<polygon fill="none" stroke="black" points="438,-78 438,-130 544,-130 544,-78 438,-78"/>
</g>
<g id="clust6" class="cluster">
<title>cluster_AppModule_providers</title>
<polygon fill="none" stroke="black" points="16,-78 16,-130 430,-130 430,-78 16,-78"/>
</g>
<!-- KnexModule -->
<g id="node1" class="node">
<title>KnexModule</title>
<polygon fill="#8dd3c7" stroke="black" points="535.87,-122 532.87,-126 511.87,-126 508.87,-122 446.13,-122 446.13,-86 535.87,-86 535.87,-122"/>
<text text-anchor="middle" x="491" y="-99.8" font-family="Times,serif" font-size="14.00">KnexModule</text>
</g>
<!-- AppModule -->
<g id="node2" class="node">
<title>AppModule</title>
<polygon fill="#8dd3c7" stroke="black" points="337.66,-187 334.66,-191 313.66,-191 310.66,-187 254.34,-187 254.34,-151 337.66,-151 337.66,-187"/>
<text text-anchor="middle" x="296" y="-164.8" font-family="Times,serif" font-size="14.00">AppModule</text>
</g>
<!-- KnexModule&#45;&gt;AppModule -->
<g id="edge1" class="edge">
<title>KnexModule&#45;&gt;AppModule</title>
<path fill="none" stroke="black" d="M491,-122.11C491,-141.34 491,-169 491,-169 491,-169 347.83,-169 347.83,-169"/>
<polygon fill="black" stroke="black" points="347.83,-165.5 337.83,-169 347.83,-172.5 347.83,-165.5"/>
</g>
<!-- AppService -->
<g id="node3" class="node">
<title>AppService</title>
<ellipse fill="#fdb462" stroke="black" cx="365" cy="-104" rx="56.74" ry="18"/>
<text text-anchor="middle" x="365" y="-99.8" font-family="Times,serif" font-size="14.00">AppService</text>
</g>
<!-- AppService&#45;&gt;AppModule -->
<g id="edge2" class="edge">
<title>AppService&#45;&gt;AppModule</title>
<path fill="none" stroke="black" d="M323.1,-116.23C323.1,-116.23 323.1,-140.68 323.1,-140.68"/>
<polygon fill="black" stroke="black" points="319.6,-140.68 323.1,-150.68 326.6,-140.68 319.6,-140.68"/>
</g>
<!-- TasksService -->
<g id="node4" class="node">
<title>TasksService</title>
<ellipse fill="#fdb462" stroke="black" cx="228" cy="-104" rx="62.54" ry="18"/>
<text text-anchor="middle" x="228" y="-99.8" font-family="Times,serif" font-size="14.00">TasksService</text>
</g>
<!-- TasksService&#45;&gt;AppModule -->
<g id="edge3" class="edge">
<title>TasksService&#45;&gt;AppModule</title>
<path fill="none" stroke="black" d="M272.34,-116.84C272.34,-116.84 272.34,-140.52 272.34,-140.52"/>
<polygon fill="black" stroke="black" points="268.84,-140.52 272.34,-150.52 275.84,-140.52 268.84,-140.52"/>
</g>
<!-- UsersService -->
<g id="node5" class="node">
<title>UsersService</title>
<ellipse fill="#fdb462" stroke="black" cx="86" cy="-104" rx="61.95" ry="18"/>
<text text-anchor="middle" x="86" y="-99.8" font-family="Times,serif" font-size="14.00">UsersService</text>
</g>
<!-- UsersService&#45;&gt;AppModule -->
<g id="edge4" class="edge">
<title>UsersService&#45;&gt;AppModule</title>
<path fill="none" stroke="black" d="M86,-122.11C86,-141.34 86,-169 86,-169 86,-169 244.26,-169 244.26,-169"/>
<polygon fill="black" stroke="black" points="244.26,-172.5 254.26,-169 244.26,-165.5 244.26,-172.5"/>
</g>
</g>
</svg>
