<?xml version="1.0" encoding="UTF-8" standalone="no"?>
<!DOCTYPE svg PUBLIC "-//W3C//DTD SVG 1.1//EN"
 "http://www.w3.org/Graphics/SVG/1.1/DTD/svg11.dtd">
<!-- Generated by graphviz version 2.47.0 (20210316.0004)
 -->
<!-- Title: dependencies Pages: 1 -->
<svg width="613pt" height="287pt"
 viewBox="0.00 0.00 613.00 287.00" xmlns="http://www.w3.org/2000/svg" xmlns:xlink="http://www.w3.org/1999/xlink">
<g id="graph0" class="graph" transform="scale(1 1) rotate(0) translate(4 283)">
<title>dependencies</title>
<polygon fill="white" stroke="transparent" points="-4,4 -4,-283 609,-283 609,4 -4,4"/>
<text text-anchor="start" x="281.51" y="-42.4" font-family="Times-12" font-weight="bold" font-size="14.00">Legend</text>
<polygon fill="#ffffb3" stroke="transparent" points="68.5,-10 68.5,-30 88.5,-30 88.5,-10 68.5,-10"/>
<text text-anchor="start" x="92.13" y="-15.4" font-family="Times-12" font-size="14.00"> &#160;Declarations</text>
<polygon fill="#8dd3c7" stroke="transparent" points="181.5,-10 181.5,-30 201.5,-30 201.5,-10 181.5,-10"/>
<text text-anchor="start" x="205.23" y="-15.4" font-family="Times-12" font-size="14.00"> &#160;Module</text>
<polygon fill="#80b1d3" stroke="transparent" points="267.5,-10 267.5,-30 287.5,-30 287.5,-10 267.5,-10"/>
<text text-anchor="start" x="291.28" y="-15.4" font-family="Times-12" font-size="14.00"> &#160;Bootstrap</text>
<polygon fill="#fdb462" stroke="transparent" points="364.5,-10 364.5,-30 384.5,-30 384.5,-10 364.5,-10"/>
<text text-anchor="start" x="388.17" y="-15.4" font-family="Times-12" font-size="14.00"> &#160;Providers</text>
<polygon fill="#fb8072" stroke="transparent" points="460.5,-10 460.5,-30 480.5,-30 480.5,-10 460.5,-10"/>
<text text-anchor="start" x="484.23" y="-15.4" font-family="Times-12" font-size="14.00"> &#160;Exports</text>
<g id="clust1" class="cluster">
<title>cluster_AppModule</title>
<polygon fill="none" stroke="black" stroke-dasharray="1,5" points="8,-146 8,-271 552,-271 552,-146 8,-146"/>
</g>
<g id="clust3" class="cluster">
<title>cluster_AppModule_imports</title>
<polygon fill="none" stroke="black" points="438,-154 438,-206 544,-206 544,-154 438,-154"/>
</g>
<g id="clust6" class="cluster">
<title>cluster_AppModule_providers</title>
<polygon fill="none" stroke="black" points="16,-154 16,-206 430,-206 430,-154 16,-154"/>
</g>
<g id="clust7" class="cluster">
<title>cluster_KnexModule</title>
<polygon fill="none" stroke="black" stroke-dasharray="1,5" points="385,-70 385,-138 597,-138 597,-70 385,-70"/>
</g>
<g id="clust12" class="cluster">
<title>cluster_KnexModule_providers</title>
<polygon fill="none" stroke="black" points="393,-78 393,-130 589,-130 589,-78 393,-78"/>
</g>
<!-- KnexModule -->
<g id="node1" class="node">
<title>KnexModule</title>
<polygon fill="#8dd3c7" stroke="black" points="535.87,-198 532.87,-202 511.87,-202 508.87,-198 446.13,-198 446.13,-162 535.87,-162 535.87,-198"/>
<text text-anchor="middle" x="491" y="-175.8" font-family="Times,serif" font-size="14.00">KnexModule</text>
</g>
<!-- AppModule -->
<g id="node2" class="node">
<title>AppModule</title>
<polygon fill="#8dd3c7" stroke="black" points="337.66,-263 334.66,-267 313.66,-267 310.66,-263 254.34,-263 254.34,-227 337.66,-227 337.66,-263"/>
<text text-anchor="middle" x="296" y="-240.8" font-family="Times,serif" font-size="14.00">AppModule</text>
</g>
<!-- KnexModule&#45;&gt;AppModule -->
<g id="edge1" class="edge">
<title>KnexModule&#45;&gt;AppModule</title>
<path fill="none" stroke="black" d="M491,-198.11C491,-217.34 491,-245 491,-245 491,-245 347.83,-245 347.83,-245"/>
<polygon fill="black" stroke="black" points="347.83,-241.5 337.83,-245 347.83,-248.5 347.83,-241.5"/>
</g>
<!-- AppService -->
<g id="node3" class="node">
<title>AppService</title>
<ellipse fill="#fdb462" stroke="black" cx="365" cy="-180" rx="56.74" ry="18"/>
<text text-anchor="middle" x="365" y="-175.8" font-family="Times,serif" font-size="14.00">AppService</text>
</g>
<!-- AppService&#45;&gt;AppModule -->
<g id="edge2" class="edge">
<title>AppService&#45;&gt;AppModule</title>
<path fill="none" stroke="black" d="M323.1,-192.23C323.1,-192.23 323.1,-216.68 323.1,-216.68"/>
<polygon fill="black" stroke="black" points="319.6,-216.68 323.1,-226.68 326.6,-216.68 319.6,-216.68"/>
</g>
<!-- TasksService -->
<g id="node4" class="node">
<title>TasksService</title>
<ellipse fill="#fdb462" stroke="black" cx="228" cy="-180" rx="62.54" ry="18"/>
<text text-anchor="middle" x="228" y="-175.8" font-family="Times,serif" font-size="14.00">TasksService</text>
</g>
<!-- TasksService&#45;&gt;AppModule -->
<g id="edge3" class="edge">
<title>TasksService&#45;&gt;AppModule</title>
<path fill="none" stroke="black" d="M272.34,-192.84C272.34,-192.84 272.34,-216.52 272.34,-216.52"/>
<polygon fill="black" stroke="black" points="268.84,-216.52 272.34,-226.52 275.84,-216.52 268.84,-216.52"/>
</g>
<!-- UsersService -->
<g id="node5" class="node">
<title>UsersService</title>
<ellipse fill="#fdb462" stroke="black" cx="86" cy="-180" rx="61.95" ry="18"/>
<text text-anchor="middle" x="86" y="-175.8" font-family="Times,serif" font-size="14.00">UsersService</text>
</g>
<!-- UsersService&#45;&gt;AppModule -->
<g id="edge4" class="edge">
<title>UsersService&#45;&gt;AppModule</title>
<path fill="none" stroke="black" d="M86,-198.11C86,-217.34 86,-245 86,-245 86,-245 244.26,-245 244.26,-245"/>
<polygon fill="black" stroke="black" points="244.26,-248.5 254.26,-245 244.26,-241.5 244.26,-248.5"/>
</g>
<!-- DbMigrationService -->
<g id="node6" class="node">
<title>DbMigrationService</title>
<ellipse fill="#fdb462" stroke="black" cx="491" cy="-104" rx="90.33" ry="18"/>
<text text-anchor="middle" x="491" y="-99.8" font-family="Times,serif" font-size="14.00">DbMigrationService</text>
</g>
<!-- DbMigrationService&#45;&gt;KnexModule -->
<g id="edge5" class="edge">
<title>DbMigrationService&#45;&gt;KnexModule</title>
<path fill="none" stroke="black" d="M491,-122.01C491,-122.01 491,-151.85 491,-151.85"/>
<polygon fill="black" stroke="black" points="487.5,-151.85 491,-161.85 494.5,-151.85 487.5,-151.85"/>
</g>
</g>
</svg>
